# xmcd CD database file
#
# Track frame offsets:
#	150
#	16665
#	38163
#	55499
#	74535
#	92927
#	113054
#	128251
#	140587
#	156358
#	177175
#	193345
#
# Disc length: 2727 seconds
#
# Revision: 2
# Processed by: cddbd v1.5.1PL0 Copyright (c) Steve Scherf et al.
# Submitted via: CDex 1.51
#
DISCID=a60aa50c
DTITLE=Rudi Mangst - With A Little Help From Myself
DYEAR=2000
DGENRE=Folk-Rock
TTITLE0=Carey
TTITLE1=It's All Over Now Baby Blue
TTITLE2=Mother Goose
TTITLE3=You've Got A Friend
TTITLE4=The Night They Drove Old Dixie Down
TTITLE5=If I Were A Carpenter
TTITLE6=Little Wing
TTITLE7=Tell Me Why
TTITLE8=Where Do The Childeren Play
TTITLE9=Maggie May
TTITLE10=Perfect Imperfection
TTITLE11=Mercedes Benz
EXTD=YEAR: 2000
EXTT0=
EXTT1=
EXTT2=
EXTT3=
EXTT4=
EXTT5=
EXTT6=
EXTT7=
EXTT8=
EXTT9=
EXTT10=
EXTT11=
PLAYORDER=
